<svg width="400" height="400" viewBox="0 0 400 400" xmlns="http://www.w3.org/2000/svg"><mask id="satori_om-id"><rect x="0" y="0" width="400" height="400" fill="#fff"></rect></mask><mask id="satori_om-id-0"><rect x="-24" y="45" width="448" height="310" fill="#fff"></rect></mask><path fill="white" d="M127 282.5L-1 226.2L-1 194.2L127 137.8L127 174.6L39.4 209.8L40.5 207.9L40.5 212.4L39.4 210.5L127 245.7L127 282.5Z "></path><mask id="satori_om-id-0-1"><rect x="150" y="45" width="100" height="310" fill="#fff"></rect></mask><path fill="#3366cc" d="M213.2 89.7L246.5 89.7L186.5 312.6L153.2 312.6L213.2 89.7Z "></path><path fill="white" d="M401 194.2L401 226.2L273 282.5L273 245.7L360.6 210.5L359.5 212.4L359.5 207.9L360.6 209.8L273 174.6L273 137.8L401 194.2Z "></path></svg>